<svg width="260" height="74" viewBox="0 0 260 74" fill="none" xmlns="http://www.w3.org/2000/svg">
<g clip-path="url(#clip0_627_2029)">
<path d="M36.9636 74C26.5999 74 18.0473 70.4236 10.803 63.0612C3.53429 55.675 0 47.1459 0 37.0024C0 26.7779 3.53429 18.2345 10.7981 10.8864C18.0425 3.56213 26.5999 0 36.9636 0C47.3224 0 55.8604 3.55737 63.0608 10.8817C70.2904 18.2345 73.8003 26.7779 73.8003 37.0024C73.8003 47.1507 70.2856 55.675 63.0559 63.066C55.8555 70.4236 47.3224 74 36.9636 74ZM36.9636 13.8676C30.598 13.8676 25.1452 16.201 20.7566 20.8013C16.4169 25.354 14.2153 30.8258 14.2153 37.0595C14.2153 43.2218 16.4169 48.6507 20.7566 53.2034C25.1403 57.8037 30.5931 60.1324 36.9636 60.1324C43.2512 60.1324 48.66 57.799 53.0486 53.2034C57.3883 48.6507 59.5899 43.2218 59.5899 37.0595C59.5899 30.8258 57.3883 25.354 53.0486 20.8013C48.66 16.201 43.2463 13.8676 36.9636 13.8676Z" fill="white"/>
<path d="M139.57 71.5284C134.435 71.5284 129.705 69.8378 125.106 66.3662C120.517 62.8993 117.335 58.6752 115.655 53.8082L107.972 32.664H128.328C130.622 32.664 132.614 31.6544 134.083 29.7495C135.411 28.0256 136.09 26.1207 136.09 24.092C136.09 21.9728 135.406 20.0394 134.059 18.3488C132.58 16.4963 130.593 15.52 128.309 15.52H96.7586V71.5284H82.5433V1.65248H128.328C134.528 1.65248 139.614 3.81929 143.891 8.28148C148.206 12.7913 150.305 17.9964 150.305 24.2015C150.305 29.8257 148.528 34.6689 144.877 38.993C141.264 43.279 136.812 45.7077 131.277 46.4173L128.064 46.8316L129.358 49.7318C132.282 56.2846 136.524 57.6608 139.57 57.6608H163.041V1.65248H177.257V71.5284H139.57Z" fill="white"/>
<path d="M223.158 74C212.795 74 204.242 70.4236 196.998 63.0612C189.729 55.675 186.195 47.1459 186.195 37.0024C186.195 26.7779 189.729 18.2345 196.993 10.8864C204.237 3.56213 212.795 0 223.158 0C233.517 0 242.055 3.55737 249.256 10.8817C256.485 18.2345 260 26.7779 260 37.0024C260 47.1507 256.485 55.675 249.251 63.066C242.055 70.4236 233.517 74 223.158 74ZM223.158 13.8676C216.793 13.8676 211.34 16.201 206.951 20.8013C202.612 25.354 200.41 30.8258 200.41 37.0595C200.41 43.2218 202.612 48.6507 206.951 53.2034C211.335 57.8037 216.788 60.1324 223.158 60.1324C229.446 60.1324 234.855 57.799 239.243 53.2034C243.583 48.6507 245.785 43.2218 245.785 37.0595C245.785 30.821 243.583 25.354 239.243 20.8013C234.855 16.201 229.446 13.8676 223.158 13.8676Z" fill="white"/>
</g>
<defs>
<clipPath id="clip0_627_2029">
<rect width="260" height="74" fill="white"/>
</clipPath>
</defs>
</svg>
